<svg xmlns="http://www.w3.org/2000/svg" version="1.1" xmlns:xlink="http://www.w3.org/1999/xlink" xmlns:svgjs="http://svgjs.dev/svgjs" width="1500" height="1500" viewBox="0 0 1500 1500"><rect width="1500" height="1500" fill="#000000"></rect><g transform="matrix(0.6666666666666666,0,0,0.6666666666666666,249.39393939393938,688.377253174159)"><svg viewBox="0 0 396 49" data-background-color="#c8c8c8" preserveAspectRatio="xMidYMid meet" height="185" width="1500" xmlns="http://www.w3.org/2000/svg" xmlns:xlink="http://www.w3.org/1999/xlink"><g id="tight-bounds" transform="matrix(1,0,0,1,0.2400000000000091,-0.017449234057721696)"><svg viewBox="0 0 395.52 49.034898468115436" height="49.034898468115436" width="395.52"><g><svg viewBox="0 0 395.52 49.034898468115436" height="49.034898468115436" width="395.52"><g><svg viewBox="0 0 395.52 49.034898468115436" height="49.034898468115436" width="395.52"><g><svg viewBox="0 0 395.52 49.034898468115436" height="49.034898468115436" width="395.52"><g id="textblocktransform"><svg viewBox="0 0 395.52 49.034898468115436" height="49.034898468115436" width="395.52" id="textblock"><g><svg viewBox="0 0 395.52 49.034898468115436" height="49.034898468115436" width="395.52"><g transform="matrix(1,0,0,1,0,0)"><svg width="395.52" viewBox="1.15 -33.95 280.68 34.800000000000004" height="49.034898468115436" data-palette-color="#6b7280"><g class="wordmark-text-0" data-fill-palette-color="primary" id="text-0"><path d="M13.65 0L1.15 0 1.15-1.05 2.15-1.35Q3.15-1.7 3.48-2.27 3.8-2.85 3.8-3.9L3.8-3.9 3.8-29.15Q3.8-30.2 3.48-30.78 3.15-31.35 2.15-31.7L2.15-31.7 1.15-32 1.15-33.05 13.65-33.05 13.65-32 12.65-31.7Q11.7-31.35 11.35-30.78 11-30.2 11-29.15L11-29.15 11-3.9Q11-2.85 11.35-2.27 11.7-1.7 12.65-1.35L12.65-1.35 13.65-1.05 13.65 0ZM24.25 0L16.55 0 16.55-1.05 18-1.45Q18.95-1.7 19.32-2.4 19.7-3.1 19.7-4.1L19.7-4.1 19.7-28.3Q19.25-29.25 18.92-29.73 18.6-30.2 18.25-30.55 17.9-30.9 17.3-31.35L17.3-31.35 16.4-32 16.4-33.05 24.95-33.05 41.55-10.35 41.55-28.9Q41.55-29.9 41.22-30.65 40.9-31.4 39.9-31.65L39.9-31.65 38.4-32 38.4-33.05 45.85-33.05 45.85-32 44.6-31.65Q43.65-31.35 43.42-30.63 43.2-29.9 43.2-28.9L43.2-28.9 43.2 0.2 40.4 0.2 21.35-26 21.35-4.15Q21.35-3.1 21.65-2.4 21.95-1.7 22.9-1.45L22.9-1.45 24.25-1.05 24.25 0ZM65.55 0.2L62 0.2 51.3-29.3Q50.65-31.15 48.75-31.7L48.75-31.7 47.65-32 47.65-33.05 61.5-33.05 61.5-32.05 60.1-31.7Q58.95-31.4 58.82-30.65 58.7-29.9 59.1-28.75L59.1-28.75 66.3-7.4 73.55-28.75Q73.95-29.9 73.92-30.65 73.9-31.4 72.75-31.7L72.75-31.7 71.55-32.05 71.55-33.05 79-33.05 79-32 77.75-31.7Q76.7-31.45 76.27-30.85 75.84-30.25 75.5-29.2L75.5-29.2 65.55 0.2ZM105.19 0L80.39 0 80.39-1.05 81.39-1.4Q82.29-1.65 82.64-2.27 82.99-2.9 83.04-4L83.04-4 83.04-29.15Q82.99-30.2 82.69-30.78 82.39-31.35 81.44-31.65L81.44-31.65 80.39-32 80.39-33.05 104.19-33.05 104.54-25.05 103.14-25.05 101.14-29.55Q100.74-30.5 100.24-31.03 99.74-31.55 98.74-31.55L98.74-31.55 90.24-31.55Q90.19-28.45 90.19-25.18 90.19-21.9 90.19-17.8L90.19-17.8 95.14-17.8Q96.14-17.8 96.67-18.32 97.19-18.85 97.64-19.75L97.64-19.75 98.49-21.65 99.59-21.65 99.59-12.4 98.49-12.4 97.59-14.3Q97.19-15.2 96.69-15.75 96.19-16.3 95.19-16.3L95.19-16.3 90.19-16.3Q90.19-12.7 90.19-10.1 90.19-7.5 90.22-5.48 90.24-3.45 90.24-1.5L90.24-1.5 99.84-1.5Q100.84-1.5 101.39-2.02 101.94-2.55 102.29-3.5L102.29-3.5 104.14-8 105.54-8 105.19 0ZM116.39 0L108.69 0 108.69-1.05 110.14-1.45Q111.09-1.7 111.47-2.4 111.84-3.1 111.84-4.1L111.84-4.1 111.84-28.3Q111.39-29.25 111.07-29.73 110.74-30.2 110.39-30.55 110.04-30.9 109.44-31.35L109.44-31.35 108.54-32 108.54-33.05 117.09-33.05 133.69-10.35 133.69-28.9Q133.69-29.9 133.37-30.65 133.04-31.4 132.04-31.65L132.04-31.65 130.54-32 130.54-33.05 137.99-33.05 137.99-32 136.74-31.65Q135.79-31.35 135.56-30.63 135.34-29.9 135.34-28.9L135.34-28.9 135.34 0.2 132.54 0.2 113.49-26 113.49-4.15Q113.49-3.1 113.79-2.4 114.09-1.7 115.04-1.45L115.04-1.45 116.39-1.05 116.39 0ZM163.09 0L147.64 0 147.64-1.05 149.64-1.45Q151.74-1.9 151.74-3.9L151.74-3.9 151.74-17.55Q151.74-21.05 151.74-24.55 151.74-28.05 151.69-31.55L151.69-31.55 147.74-31.55Q146.14-31.55 145.39-30.7 144.64-29.85 143.89-28.3L143.89-28.3 142.14-24.6 140.74-24.6 140.99-33.05 169.69-33.05 169.94-24.6 168.54-24.6 166.79-28.3Q166.04-29.85 165.29-30.7 164.54-31.55 162.94-31.55L162.94-31.55 158.94-31.55 158.94-3.9Q158.94-1.85 161.04-1.45L161.04-1.45 163.09-1.05 163.09 0ZM178.94 0L171.28 0 171.28-1.05 172.63-1.45Q173.69-1.75 174.26-2.35 174.84-2.95 175.19-4L175.19-4 185.28-33.2 189.44-33.2 199.49-3.8Q199.88-2.7 200.38-2.13 200.88-1.55 201.99-1.2L201.99-1.2 202.74-1 202.74 0 190.03 0 190.03-1 190.88-1.25Q191.99-1.6 192.21-2.35 192.44-3.1 192.09-4.2L192.09-4.2 189.99-10.65 178.94-10.65 176.78-4.3Q176.44-3.2 176.59-2.5 176.74-1.8 177.84-1.4L177.84-1.4 178.94-1.05 178.94 0ZM184.63-27.15L179.44-12.1 189.53-12.1 184.63-27.15ZM217.08 0L204.53 0 204.53-1.05 205.58-1.35Q206.58-1.65 206.86-2.23 207.13-2.8 207.13-3.85L207.13-3.85Q207.18-6.75 207.18-9.65 207.18-12.55 207.18-15.5L207.18-15.5 207.18-17.55Q207.18-20.45 207.18-23.35 207.18-26.25 207.13-29.15L207.13-29.15Q207.13-30.2 206.88-30.78 206.63-31.35 205.63-31.65L205.63-31.65 204.53-32 204.53-33.05 218.53-33.05Q224.38-33.05 227.56-30.83 230.73-28.6 230.73-24.6L230.73-24.6Q230.73-22.4 229.01-20.15 227.28-17.9 223.73-16.7L223.73-16.7 230.53-3.45Q231.38-1.8 233.18-1.2L233.18-1.2 234.13-1 234.13 0 225.28 0 217.83-15.6 214.23-15.6Q214.23-12.05 214.23-9.2 214.23-6.35 214.28-3.85L214.28-3.85Q214.28-2.85 214.61-2.25 214.93-1.65 215.88-1.4L215.88-1.4 217.08-1.05 217.08 0ZM214.23-17.05L214.23-17.05 216.93-17.05Q220.48-17.05 222.13-18.85 223.78-20.65 223.78-24.35L223.78-24.35Q223.78-28.05 222.21-29.83 220.63-31.6 217.13-31.6L217.13-31.6 214.28-31.6Q214.28-29.65 214.26-27.63 214.23-25.6 214.23-23.08 214.23-20.55 214.23-17.05ZM248.28 0L235.78 0 235.78-1.05 236.78-1.35Q237.78-1.7 238.1-2.27 238.43-2.85 238.43-3.9L238.43-3.9 238.43-29.15Q238.43-30.2 238.1-30.78 237.78-31.35 236.78-31.7L236.78-31.7 235.78-32 235.78-33.05 248.28-33.05 248.28-32 247.28-31.7Q246.33-31.35 245.98-30.78 245.63-30.2 245.63-29.15L245.63-29.15 245.63-3.9Q245.63-2.85 245.98-2.27 246.33-1.7 247.28-1.35L247.28-1.35 248.28-1.05 248.28 0ZM266.18 0.85L266.18 0.85Q263.13 0.85 260.33-0.25 257.53-1.35 255.3-3.53 253.08-5.7 251.78-8.95 250.48-12.2 250.48-16.55L250.48-16.55Q250.48-20.8 251.78-24.05 253.08-27.3 255.3-29.5 257.53-31.7 260.35-32.83 263.18-33.95 266.18-33.95L266.18-33.95Q269.18-33.95 272-32.85 274.83-31.75 277.03-29.58 279.23-27.4 280.53-24.15 281.83-20.9 281.83-16.55L281.83-16.55Q281.83-12.3 280.53-9.05 279.23-5.8 277.03-3.6 274.83-1.4 272.03-0.28 269.23 0.85 266.18 0.85ZM266.18-0.65L266.18-0.65Q269.03-0.65 270.78-2.13 272.53-3.6 273.33-7.1 274.13-10.6 274.13-16.55L274.13-16.55Q274.13-22.5 273.33-25.98 272.53-29.45 270.78-30.93 269.03-32.4 266.18-32.4L266.18-32.4Q263.38-32.4 261.6-30.93 259.83-29.45 259.03-25.98 258.23-22.5 258.23-16.55L258.23-16.55Q258.23-10.6 259.03-7.1 259.83-3.6 261.6-2.13 263.38-0.65 266.18-0.65Z" fill="#ffffff" data-fill-palette-color="primary"></path></g></svg></g></svg></g></svg></g></svg></g></svg></g></svg></g><defs></defs></svg><rect width="395.52" height="49.034898468115436" fill="none" stroke="none" visibility="hidden"></rect></g></svg></g></svg>